<?xml version="1.0" standalone="no"?><!DOCTYPE svg PUBLIC "-//W3C//DTD SVG 1.1//EN" "http://www.w3.org/Graphics/SVG/1.1/DTD/svg11.dtd"><svg t="1538103340315" class="icon" style="" viewBox="0 0 1024 1024" version="1.1" xmlns="http://www.w3.org/2000/svg" p-id="5220" xmlns:xlink="http://www.w3.org/1999/xlink" width="200" height="200"><defs><style type="text/css"></style></defs><path d="M787.046798 0.997724c2.699482 0.667196 5.392824 1.359974 8.098445 1.994424 31.597649 7.413853 54.299697 34.852786 55.608505 67.236334 0.066515 1.661849 0.095167 3.326768 0.095167 4.989641 0.00307 97.834212 0.011256 195.668425-0.00307 293.502637-0.00307 17.196661-8.445346 29.538757-23.127743 33.994232-18.20871 5.52483-37.322024-6.05081-40.735773-24.805966-0.620124-3.411703-0.799202-6.944156-0.800225-10.42135-0.041956-96.66969-0.031722-193.338357-0.033769-290.00907 0-9.41851-1.635243-11.110035-10.955516-11.110035-207.980845-0.007163-415.962713-0.00614-623.943558 0.002047-10.231015 0.001023-11.506055 1.305739-11.506055 11.523451-0.002047 270.209118-0.002047 540.418236 0 810.628378 0 10.254551 1.541099 11.787464 11.873422 11.787464 86.520539 0.00307 173.041078 0.065492 259.561617-0.063445 14.008039-0.020466 25.031093 4.796236 31.789007 17.392112 10.451026 19.476587-1.36816 43.428092-23.149233 47.145763-2.607384 0.445138-5.297656 0.543376-7.950066 0.544399-87.85186 0.025583-175.702698 0.058328-263.553535 0.004093-35.215036-0.021489-63.166645-21.898753-71.28044-55.975872-1.407046-5.909593-1.819438-12.178367-1.821485-18.280342-0.084934-271.874037-0.091074-543.747051-0.054235-815.620066 0.005117-36.599569 22.345937-65.044412 56.785308-72.748884 2.397606-0.536212 4.779863-1.137916 7.169283-1.710968C355.089809 0.997724 571.067792 0.997724 787.046798 0.997724z" p-id="5221"></path><path d="M505.50968 1023.317455c-6.089695-3.183506-12.873192-5.513574-18.10024-9.759271-7.150864-5.810333-9.790994-14.434757-9.79611-23.668049-0.017396-39.098483-0.105401-78.19799 0.031722-117.29545 0.067538-19.561521 13.485129-33.815153 33.230845-33.336246 10.450003 0.252757 15.799848-3.675716 21.405519-11.758812 38.000476-54.794977 76.532047-109.222587 114.88761-163.772994 0.954745-1.355881 1.86958-2.737344 3.007497-4.40738-32.292474-23.856337-49.486064-55.757908-49.343825-95.883791 0.11154-31.475875 11.845793-58.732659 34.434254-80.861656 45.232181-44.312228 115.994828-42.556235 159.729911 1.532913 46.802956 47.180556 45.278229 132.457778-16.485463 175.405939 0.889253 1.355881 1.746784 2.747577 2.684132 4.080945 40.08495 56.993039 80.208786 113.959471 120.18936 171.025165 2.288113 3.266393 4.659113 4.516874 8.553817 4.340865 10.257621-0.461511 20.323884 0.179079 28.773324 7.206122 7.427156 6.175653 11.914354 13.9712 12.014638 23.664979 0.251733 23.954575 0.181125 47.913243 0.218988 71.869864 0.021489 13.808494-0.521886 27.643594 0.130983 41.421388 0.907673 19.133779-5.77247 34.534538-28.253484 40.195467C783.719007 1023.317455 644.613832 1023.317455 505.50968 1023.317455zM886.014834 904.716266c-114.666576 0-229.002624 0-343.359139 0 0 17.83725 0 35.346019 0 53.007261 114.604154 0 228.818429 0 343.359139 0C886.014834 940.02954 886.014834 922.623102 886.014834 904.716266zM824.579623 838.490959c-0.733711-1.269923-1.143033-2.121314-1.679245-2.882654-31.179117-44.326555-62.343907-88.663342-93.662193-132.889613-1.087774-1.539053-3.675716-2.695389-5.636371-2.809999-6.131651-0.35918-12.305257 0.031722-18.450211-0.200568-3.047406-0.115634-4.798283 1.048889-6.494924 3.466961-30.638811 43.690058-61.359486 87.323834-92.052532 130.973984-0.887206 1.260713-1.672082 2.592035-2.793626 4.342912C677.799652 838.490959 750.886227 838.490959 824.579623 838.490959zM763.174088 565.087079c0.156566-26.985608-21.895683-49.633421-48.564066-49.873897-26.491351-0.239454-49.187259 22.394033-49.327452 49.190329-0.140193 26.78811 22.299889 49.551556 48.88743 49.592488C740.599953 614.036931 763.019569 591.663364 763.174088 565.087079z" p-id="5222"></path><path d="M452.590424 233.378282c-73.870428 0-147.741879-0.011256-221.612307 0.010233-12.012591 0.00307-22.904663-2.888793-32.250518-10.94733-12.94073-11.158131-17.883299-29.386284-12.316513-46.856168 4.997827-15.679098 20.004613-27.538193 36.604686-28.812209 4.305049-0.330528 8.630564-0.534166 12.94687-0.535189 146.244782-0.027629 292.489564 0.004093 438.733323-0.061398 15.876596-0.008186 29.553083 4.51892 39.162952 17.797341 9.641591 13.323447 11.337209 28.052916 4.916986 43.00342-6.335289 14.751982-17.859763 23.703865-34.140565 25.654286-4.605901 0.551562-9.281387 0.714268-13.926174 0.716314C598.004281 233.390561 525.297352 233.378282 452.590424 233.378282z" p-id="5223"></path><path d="M452.98849 419.365206c-74.363661 0-148.729369-0.046049-223.093031 0.032746-17.582447 0.01842-31.510668-6.617721-40.154535-22.149463-15.959483-28.680203 3.109828-62.804395 35.869952-64.683185 1.493004-0.084934 2.993171-0.082888 4.490268-0.082888 148.729369-0.002047 297.457716 0.013303 446.186062-0.022513 18.591427-0.005117 32.763195 7.408737 41.528835 24.115234 13.855566 26.40437-4.498454 59.866483-34.257222 62.506613-2.976798 0.26299-5.983271 0.272199-8.975419 0.272199C600.719112 419.368276 526.852778 419.365206 452.98849 419.365206z" p-id="5224"></path><path d="M340.122933 605.671403c-36.427654 0-72.856331-0.008186-109.283985 0.004093-12.004405 0.004093-22.884197-2.937912-32.213679-11.025101-12.885472-11.171434-17.765619-29.338189-12.163017-46.87868 4.927219-15.429411 19.880793-27.314089 36.184107-28.635177 4.466732-0.36225 8.956999-0.591471 13.437034-0.594541 70.859861-0.035816 141.719722-0.026606 212.579583-0.023536 9.428743 0.001023 18.410302 1.502213 26.759457 6.4192 15.20633 8.952906 23.756053 28.544103 19.869536 46.441729-3.921309 18.056238-19.539009 32.142048-37.44175 33.639145-4.630461 0.38681-9.287527 0.6191-13.932314 0.626263C409.319921 605.695962 374.720915 605.671403 340.122933 605.671403z" p-id="5225"></path><path d="M310.396911 704.814424c27.449165 0.002047 54.899354-0.185218 82.347496 0.056282 26.711362 0.233314 45.680389 20.99722 43.736107 47.367821-1.638313 22.204721-20.346397 39.210024-43.792389 39.367613-27.947516 0.186242-55.897078 0.048095-83.844593 0.048095-26.949792 0-53.901631 0.182149-80.849376-0.056282-28.386514-0.249687-48.358381-24.466228-43.10882-51.834552 3.969405-20.692275 21.443381-34.806737 43.663452-34.918277C255.830131 704.709023 283.113521 704.812377 310.396911 704.814424z" p-id="5226"></path></svg>