<?xml version="1.0" standalone="no"?><!DOCTYPE svg PUBLIC "-//W3C//DTD SVG 1.1//EN" "http://www.w3.org/Graphics/SVG/1.1/DTD/svg11.dtd"><svg t="1538103096870" class="icon" style="" viewBox="0 0 1024 1024" version="1.1" xmlns="http://www.w3.org/2000/svg" p-id="2512" xmlns:xlink="http://www.w3.org/1999/xlink" width="200" height="200"><defs><style type="text/css"></style></defs><path d="M800 822.4c-12.8-28.8-41.6-118.4-73.6-118.4-32 0-35.2 12.8-35.2 12.8l35.2 89.6-172.8-16-73.6-172.8c-70.4-176-144-198.4-214.4-198.4-35.2 0-105.6 3.2-160 73.6C51.2 563.2 19.2 944 19.2 944H352l-118.4-233.6 51.2-32s9.6 19.2 67.2 144 99.2 140.8 99.2 140.8h313.6c44.8 0 83.2-16 83.2-73.6-3.2-57.6-48-67.2-48-67.2z" p-id="2513"></path><path d="M249.6 227.2a185.6 176 90 1 0 352 0 185.6 176 90 1 0-352 0Z" p-id="2514"></path><path d="M684.8 476.8s-32 60.8-57.6 89.6c-25.6 25.6-76.8 96-35.2 150.4l115.2-188.8 240 108.8-92.8 131.2s-12.8 51.2 3.2 54.4c16 3.2 147.2-208 147.2-208l-320-137.6z" p-id="2515"></path></svg>