<?xml version="1.0" standalone="no"?><!DOCTYPE svg PUBLIC "-//W3C//DTD SVG 1.1//EN" "http://www.w3.org/Graphics/SVG/1.1/DTD/svg11.dtd"><svg t="1538116887908" class="icon" style="" viewBox="0 0 1024 1024" version="1.1" xmlns="http://www.w3.org/2000/svg" p-id="6352" xmlns:xlink="http://www.w3.org/1999/xlink" width="200" height="200"><defs><style type="text/css"></style></defs><path d="M512 509.5m-110 0a110 110 0 1 0 220 0 110 110 0 1 0-220 0Z" fill="" p-id="6353"></path><path d="M512 218.48c-282.77 0-512 291-512 291s229.23 291 512 291 512-291 512-291-229.2-291-512-291z m0 479c-103.83 0-188-84.17-188-188s84.17-188 188-188 188 84.17 188 188S615.8 697.5 512 697.5z" fill="" p-id="6354"></path></svg>