<?xml version="1.0" standalone="no"?><!DOCTYPE svg PUBLIC "-//W3C//DTD SVG 1.1//EN" "http://www.w3.org/Graphics/SVG/1.1/DTD/svg11.dtd"><svg t="1538103534927" class="icon" style="" viewBox="0 0 1024 1024" version="1.1" xmlns="http://www.w3.org/2000/svg" p-id="7844" xmlns:xlink="http://www.w3.org/1999/xlink" width="200" height="200"><defs><style type="text/css"></style></defs><path d="M648 959.6H169.8c-23.2 0-42-18.8-42-42V105.5c0-23.2 18.8-42 42-42H854c12.5 0 24.1 5.6 31.9 15.3 6.6 8.3 10.1 19 10.1 31v587.9c0 25.4-9.7 49.4-27.2 67.8L706.3 934.8c-15.2 15.8-36.4 24.8-58.3 24.8z m-460.2-60H648c5.6 0 11.1-2.3 14.9-6.4l162.5-169.4c6.8-7.1 10.5-16.4 10.5-26.2V123.5H187.8v776.1z" p-id="7845"></path><path d="M860.9 716.7h-227c-16.6 0-30-13.4-30-30s13.4-30 30-30h227c16.6 0 30 13.4 30 30s-13.5 30-30 30z" p-id="7846"></path><path d="M633.5 956.5s-0.1 0 0 0c-16.6 0-30-13.5-30-30.1l0.4-239.8c0-16.6 13.5-29.9 30-29.9h0.1c16.6 0 30 13.5 29.9 30.1l-0.4 239.8c-0.1 16.5-13.5 29.9-30 29.9z" p-id="7847"></path><path d="M642.8 362.5H319c-16.6 0-30-13.4-30-30s13.4-30 30-30h323.7c16.6 0 30 13.4 30 30s-13.4 30-29.9 30zM538.4 477.6H320.1c-16.6 0-30-13.4-30-30s13.4-30 30-30h218.3c16.6 0 30 13.4 30 30s-13.4 30-30 30zM536.9 592.6H318.6c-16.6 0-30-13.4-30-30s13.4-30 30-30h218.3c16.6 0 30 13.4 30 30s-13.4 30-30 30z" p-id="7848"></path></svg>