<?xml version="1.0" standalone="no"?><!DOCTYPE svg PUBLIC "-//W3C//DTD SVG 1.1//EN" "http://www.w3.org/Graphics/SVG/1.1/DTD/svg11.dtd"><svg t="1538103190351" class="icon" style="" viewBox="0 0 1024 1024" version="1.1" xmlns="http://www.w3.org/2000/svg" p-id="3200" xmlns:xlink="http://www.w3.org/1999/xlink" width="200" height="200"><defs><style type="text/css"></style></defs><path d="M32 0v1024" p-id="3201"></path><path d="M64 0v1024" p-id="3202"></path><path d="M96 0v1024" p-id="3203"></path><path d="M128 0v1024" p-id="3204"></path><path d="M160 0v1024" p-id="3205"></path><path d="M192 0v1024" p-id="3206"></path><path d="M224 0v1024" p-id="3207"></path><path d="M256 0v1024" p-id="3208"></path><path d="M288 0v1024" p-id="3209"></path><path d="M320 0v1024" p-id="3210"></path><path d="M352 0v1024" p-id="3211"></path><path d="M384 0v1024" p-id="3212"></path><path d="M416 0v1024" p-id="3213"></path><path d="M448 0v1024" p-id="3214"></path><path d="M480 0v1024" p-id="3215"></path><path d="M512 0v1024" p-id="3216"></path><path d="M544 0v1024" p-id="3217"></path><path d="M576 0v1024" p-id="3218"></path><path d="M608 0v1024" p-id="3219"></path><path d="M640 0v1024" p-id="3220"></path><path d="M672 0v1024" p-id="3221"></path><path d="M704 0v1024" p-id="3222"></path><path d="M736 0v1024" p-id="3223"></path><path d="M768 0v1024" p-id="3224"></path><path d="M800 0v1024" p-id="3225"></path><path d="M832 0v1024" p-id="3226"></path><path d="M864 0v1024" p-id="3227"></path><path d="M896 0v1024" p-id="3228"></path><path d="M928 0v1024" p-id="3229"></path><path d="M960 0v1024" p-id="3230"></path><path d="M992 0v1024M0 32h1024" p-id="3231"></path><path d="M0 64h1024" p-id="3232"></path><path d="M0 96h1024" p-id="3233"></path><path d="M0 128h1024" p-id="3234"></path><path d="M0 160h1024" p-id="3235"></path><path d="M0 192h1024" p-id="3236"></path><path d="M0 224h1024" p-id="3237"></path><path d="M0 256h1024" p-id="3238"></path><path d="M0 288h1024" p-id="3239"></path><path d="M0 320h1024" p-id="3240"></path><path d="M0 352h1024" p-id="3241"></path><path d="M0 384h1024" p-id="3242"></path><path d="M0 416h1024" p-id="3243"></path><path d="M0 448h1024" p-id="3244"></path><path d="M0 480h1024" p-id="3245"></path><path d="M0 512h1024" p-id="3246"></path><path d="M0 544h1024" p-id="3247"></path><path d="M0 576h1024" p-id="3248"></path><path d="M0 608h1024" p-id="3249"></path><path d="M0 640h1024" p-id="3250"></path><path d="M0 672h1024" p-id="3251"></path><path d="M0 704h1024" p-id="3252"></path><path d="M0 736h1024" p-id="3253"></path><path d="M0 768h1024" p-id="3254"></path><path d="M0 800h1024" p-id="3255"></path><path d="M0 832h1024" p-id="3256"></path><path d="M0 864h1024" p-id="3257"></path><path d="M0 896h1024" p-id="3258"></path><path d="M0 928h1024" p-id="3259"></path><path d="M0 960h1024" p-id="3260"></path><path d="M0 992h1024" p-id="3261"></path><path d="M288 256h448v64H288v-64zM288 480h448v64H288v-64zM288 704h448v64H288v-64z" p-id="3262"></path><path d="M1017.6 528c0-54.4-38.4-102.4-89.6-118.4v-320c0-32-25.6-57.6-57.6-57.6H153.6C121.6 32 96 57.6 96 89.6V288h64V96h704v313.6c-54.4 12.8-92.8 60.8-92.8 118.4s38.4 105.6 92.8 118.4V928H160v-192H96v198.4c0 32 25.6 57.6 57.6 57.6h716.8c32 0 57.6-25.6 57.6-57.6v-288c51.2-16 89.6-64 89.6-118.4z m-124.8 57.6c-32 0-57.6-25.6-57.6-57.6s25.6-57.6 57.6-57.6 57.6 25.6 57.6 57.6-25.6 57.6-57.6 57.6z" p-id="3263"></path><path d="M96 416h64v192H96v-192zM32 384h160c16 0 32-16 32-32s-16-32-32-32H32c-16 0-32 16-32 32s16 32 32 32zM224 672c0-16-16-32-32-32H32c-16 0-32 16-32 32s16 32 32 32h160c16 0 32-16 32-32z" p-id="3264"></path></svg>