<?xml version="1.0" standalone="no"?><!DOCTYPE svg PUBLIC "-//W3C//DTD SVG 1.1//EN" "http://www.w3.org/Graphics/SVG/1.1/DTD/svg11.dtd"><svg t="1538104436058" class="icon" style="" viewBox="0 0 1194 1024" version="1.1" xmlns="http://www.w3.org/2000/svg" p-id="13343" xmlns:xlink="http://www.w3.org/1999/xlink" width="233.203125" height="200"><defs><style type="text/css"></style></defs><path d="M85.333333 652.288a42.666667 42.666667 0 0 0 42.666667 42.666667h143.36a42.666667 42.666667 0 0 1 29.866667 12.202666l223.573333 218.538667a42.666667 42.666667 0 0 0 72.533333-30.464V128.853333a42.666667 42.666667 0 0 0-74.24-28.757333L301.482667 344.149333a42.666667 42.666667 0 0 1-31.573334 13.994667H128a42.666667 42.666667 0 0 0-42.666667 42.666667v251.477333z m165.717334-379.477333L459.946667 42.837333A128 128 0 0 1 682.666667 128.938667v766.293333a128 128 0 0 1-217.514667 91.477333L254.037333 780.288H128a128 128 0 0 1-128-128V400.810667a128 128 0 0 1 128-128h123.050667zM868.864 783.36a42.666667 42.666667 0 1 1-60.330667-60.330667 298.666667 298.666667 0 0 0 0-422.4 42.666667 42.666667 0 1 1 60.330667-60.330666 384 384 0 0 1 0 543.061333z" fill="#BFCBD9" p-id="13344"></path><path d="M1032.192 904.192a42.666667 42.666667 0 1 1-60.330667-60.330667 469.333333 469.333333 0 0 0 0-663.722666 42.666667 42.666667 0 1 1 60.330667-60.330667 554.666667 554.666667 0 0 1 0 784.384z" fill="#BFCBD9" p-id="13345"></path></svg>