<?xml version="1.0" standalone="no"?><!DOCTYPE svg PUBLIC "-//W3C//DTD SVG 1.1//EN" "http://www.w3.org/Graphics/SVG/1.1/DTD/svg11.dtd"><svg t="1538101765517" class="icon" style="" viewBox="0 0 1024 1024" version="1.1" xmlns="http://www.w3.org/2000/svg" p-id="1480" xmlns:xlink="http://www.w3.org/1999/xlink" width="200" height="200"><defs><style type="text/css"></style></defs><path d="M942.014 307.25v581.592c0 29.356-23.889 53.244-53.245 53.244H135.16a53.306 53.306 0 0 1-53.245-53.244V135.23c0-29.356 23.888-53.245 53.244-53.245H716.75V0.072H135.16C60.626 0.072 0 60.7 0 135.231v753.61C0 963.364 60.627 1024 135.158 1024H888.77c74.522 0 135.159-60.637 135.159-135.158V307.25h-81.914z m63.923-146.79a61.436 61.436 0 0 0 0-86.88L950.41 18.073a61.415 61.415 0 0 0-86.86 0l-54.821 54.82 142.387 142.399 54.821-54.832z" p-id="1481"></path><path d="M336.514 687.486c23.98 23.98 154.9-12.523 178.9-36.493l392.267-392.266-142.397-142.398-392.267 392.256c-23.99 23.991-60.494 154.9-36.503 178.901z" p-id="1482"></path></svg>