<?xml version="1.0" standalone="no"?><!DOCTYPE svg PUBLIC "-//W3C//DTD SVG 1.1//EN" "http://www.w3.org/Graphics/SVG/1.1/DTD/svg11.dtd"><svg t="1538103399920" class="icon" style="" viewBox="0 0 1024 1024" version="1.1" xmlns="http://www.w3.org/2000/svg" p-id="6479" xmlns:xlink="http://www.w3.org/1999/xlink" width="200" height="200"><defs><style type="text/css"></style></defs><path d="M856.137143 85.126262h-103.502153A120.174716 120.174716 0 0 0 637.830763 0H386.159217a120.174716 120.174716 0 0 0-114.794207 85.166341H167.852838C102.916008 85.126262 50.012681 136.045714 50.012681 198.637965v711.850332C50.012681 973.080548 102.87593 1024 167.862857 1024h688.274286c64.976908 0 117.850176-50.919452 117.850176-113.511703V198.637965c0-62.59225-52.873268-113.511703-117.850176-113.511703z m-469.977926-13.02544h251.671546a47.823405 47.823405 0 1 1 0 95.64681H386.159217a47.823405 47.823405 0 0 1 0-95.64681z m515.687202 838.387475c0 10.590685-4.528845 20.71045-12.754912 28.505676A47.623014 47.623014 0 0 1 856.137143 951.8591H167.852838a47.623014 47.623014 0 0 1-32.954364-12.865127c-8.226067-7.785205-12.754912-17.904971-12.754912-28.505676V198.637965c0-22.81456 20.500039-41.370802 45.709276-41.370803h104.283679a120.174716 120.174716 0 0 0 114.0227 82.661449h251.671546a120.174716 120.174716 0 0 0 114.022701-82.661449h104.283679c25.199217 0 45.709276 18.556243 45.709276 41.370803z" p-id="6480"></path><path d="M737.856125 353.350137H286.133855a36.07045 36.07045 0 0 0 0 72.1409H737.856125a36.07045 36.07045 0 1 0 0-72.1409zM737.856125 541.577769H286.133855a36.07045 36.07045 0 0 0 0 72.1409H737.856125a36.07045 36.07045 0 1 0 0-72.1409zM737.856125 729.795382H286.133855a36.07045 36.07045 0 0 0 0 72.1409H737.856125a36.07045 36.07045 0 0 0 0-72.1409z" p-id="6481"></path></svg>