<?xml version="1.0" standalone="no"?><!DOCTYPE svg PUBLIC "-//W3C//DTD SVG 1.1//EN" "http://www.w3.org/Graphics/SVG/1.1/DTD/svg11.dtd"><svg t="1538103041780" class="icon" style="" viewBox="0 0 1024 1024" version="1.1" xmlns="http://www.w3.org/2000/svg" p-id="2214" xmlns:xlink="http://www.w3.org/1999/xlink" width="200" height="200"><defs><style type="text/css"></style></defs><path d="M1011.2 608c-19.2 19.2-44.8 19.2-57.6 0l-102.4-102.4v409.6c0 25.6-19.2 44.8-44.8 44.8H211.2c-25.6 0-44.8-19.2-44.8-44.8V505.6c-51.2 57.6-96 102.4-96 102.4-19.2 19.2-44.8 19.2-57.6 0-19.2-19.2-19.2-44.8 0-57.6L179.2 384l6.4-6.4 294.4-294.4c19.2-19.2 44.8-19.2 57.6 0l12.8 12.8 6.4 6.4L832 377.6l6.4 6.4 166.4 166.4c25.6 12.8 25.6 38.4 6.4 57.6zM512 166.4l-256 256v454.4h512V422.4l-256-256z" p-id="2215"></path></svg>